<svg
    width="53"
    height="16"
    viewBox="0 0 53 16"
    fill="none"
    xmlns="http://www.w3.org/2000/svg"
>
    <path
        d="M31.58 14.641C31.4182 14.9383 31.2564 15.2357 31.0623 15.5H44.4255L45.4609 14.641H31.58Z"
        fill="white"
    />
    <path
        d="M32.583 11.4692C32.5507 11.7665 32.486 12.0308 32.4212 12.3282H48.1789L49.2143 11.4692H32.583Z"
        fill="white"
    />
    <path
        d="M32.3889 8.3304C32.4536 8.62775 32.5183 8.89207 32.5507 9.18943H51.9646L53 8.3304H32.3889Z"
        fill="white"
    />
    <path
        d="M3.17094 15.5V5.19163L1.35897 6.5793L0 4.69604L5.46825 0.5V15.5H3.17094Z"
        fill="white"
    />
    <path
        d="M17.4078 13.1211V15.5H7.11844L8.54212 13.6167C11.2601 9.94934 12.4573 8.3304 13.978 6.2489C14.3987 5.65419 14.6899 5.02643 14.7546 4.56388C14.7869 4.20044 14.7546 3.90308 14.5928 3.63877C14.2692 3.07709 13.525 2.77974 12.7485 2.91189C12.3278 2.97797 11.9072 3.17621 11.616 3.47357C11.2601 3.80397 10.9689 4.29956 10.8394 4.89427L8.76862 3.67181C9.05983 2.9119 9.48046 2.2511 10.0305 1.72247C10.6777 1.12775 11.4866 0.698238 12.3926 0.56608C14.1074 0.301762 15.79 1.02863 16.5989 2.4163C17.0195 3.14317 17.1813 4.0022 17.0519 4.89427C16.9225 5.78634 16.5018 6.74449 15.8223 7.6696C14.5604 9.35463 13.5574 10.7753 11.7778 13.1542L17.4078 13.1211Z"
        fill="white"
    />
    <path
        d="M23.4585 15.5C21.9701 15.4009 20.417 14.8062 18.8315 13.6828L20.1258 11.7665C22.2937 13.3194 24.3645 13.5837 25.7558 12.5264C26.7589 11.7665 27.2118 10.4119 26.8559 9.32159C26.6618 8.82599 26.3706 8.39648 25.8529 8.09912C25.2381 7.70264 24.3968 7.53745 23.3938 7.53745L21.42 7.57048L23.9438 2.81278H19.7375V0.5H27.8266L25.2057 5.38987C25.8852 5.55507 26.5 5.78634 27.0501 6.11674C27.9884 6.71145 28.6679 7.53745 28.9915 8.59472C29.315 9.58591 29.315 10.7093 28.9591 11.7665C28.6032 12.7908 27.956 13.7489 27.1148 14.3767C26.1764 15.1035 25.0116 15.5 23.7821 15.5C23.6526 15.5 23.5556 15.5 23.4585 15.5Z"
        fill="white"
    />
</svg>