<svg
    width="18"
    height="16"
    viewBox="0 0 18 16"
    fill="none"
    xmlns="http://www.w3.org/2000/svg"
>
    <path
        d="M8.99996 15.4999L7.79163 14.4166C6.38885 13.1527 5.22913 12.0624 4.31246 11.1458C3.39579 10.2291 2.66663 9.40617 2.12496 8.677C1.58329 7.94784 1.20482 7.2777 0.989543 6.66658C0.774265 6.05547 0.666626 5.43047 0.666626 4.79158C0.666626 3.48603 1.10413 2.39575 1.97913 1.52075C2.85413 0.645752 3.9444 0.208252 5.24996 0.208252C5.97218 0.208252 6.65968 0.36103 7.31246 0.666585C7.96524 0.972141 8.52774 1.4027 8.99996 1.95825C9.47218 1.4027 10.0347 0.972141 10.6875 0.666585C11.3402 0.36103 12.0277 0.208252 12.75 0.208252C14.0555 0.208252 15.1458 0.645752 16.0208 1.52075C16.8958 2.39575 17.3333 3.48603 17.3333 4.79158C17.3333 5.43047 17.2257 6.05547 17.0104 6.66658C16.7951 7.2777 16.4166 7.94784 15.875 8.677C15.3333 9.40617 14.6041 10.2291 13.6875 11.1458C12.7708 12.0624 11.6111 13.1527 10.2083 14.4166L8.99996 15.4999Z"
        fill="white"
    />
</svg>