<svg width="190" height="49" viewBox="0 0 190 49" fill="none" xmlns="http://www.w3.org/2000/svg">
<path d="M0 36.5565H11.8342C11.8342 39.5963 12.4721 40.7991 14.0305 40.7991C15.3062 40.7991 15.9441 40.0205 15.9441 38.1836C15.9441 36.3466 15.5189 35.9201 14.3856 35.568C13.4651 35.286 11.409 34.9317 9.70805 34.5773C7.08651 34.0831 4.5351 33.4467 2.83415 32.174C1.06309 30.8312 0 28.2134 0 25.3858C0 17.8912 5.17295 13.0822 14.8109 13.0822C25.5119 13.0822 29.4815 16.9705 29.4815 25.7378H17.8599C17.8599 22.1316 17.2922 21.2831 15.8762 21.2831C14.6706 21.2831 14.0328 22.2738 14.0328 23.8986C14.0328 25.7378 14.458 26.5863 15.8039 26.8684C16.8669 27.2227 19.1356 27.5748 20.9768 27.9291C23.2455 28.3533 25.7245 28.8476 27.4255 30.1203C29.4815 31.6053 30.4021 34.0809 30.4021 36.9785C30.4021 43.7667 27.0002 48.9977 14.8109 48.9977C2.62154 48.9977 0 43.8389 0 36.5565Z" fill="white"/>
<path d="M35.0797 35.708V25.88H31.6778V13.5764H34.3717C36.2152 13.5764 37.0657 12.7279 37.2783 9.68807L37.7035 5.65758H49.5377V13.5764H55.9864V25.88H49.5377V34.0109C49.5377 36.1322 50.1756 36.8386 52.727 36.8386C53.9326 36.8386 54.9233 36.7686 55.4911 36.6964V48.2914C54.6406 48.5735 51.9467 48.9977 48.3322 48.9977C38.4816 48.9977 35.0797 44.0488 35.0797 35.7057V35.708Z" fill="white"/>
<path d="M58.1103 13.5764H72.5684L72.073 22.9101H72.2155C73.2085 17.2526 75.0497 13.1521 80.295 13.1521C85.8932 13.1521 88.0194 16.8283 88.0194 26.4442C88.0194 30.1203 87.8067 34.0809 87.6642 36.06H75.83C75.83 34.293 75.9001 31.5353 75.9001 30.3325C75.9001 27.7169 75.4749 26.7262 74.5543 26.7262C73.2786 26.7262 72.5706 28.6354 72.5706 33.3023V48.5035H58.1126V13.5764H58.1103Z" fill="white"/>
<path d="M89.6479 31.111C89.6479 19.9403 94.5381 13.0799 106.09 13.0799C117.641 13.0799 122.601 19.9381 122.601 31.111C122.601 42.284 117.641 49 106.09 49C94.5381 49 89.6479 42.2818 89.6479 31.111ZM108.146 31.0411C108.146 25.88 107.578 24.3228 106.09 24.3228C104.601 24.3228 104.106 25.8777 104.106 31.0411C104.106 36.2044 104.674 37.7593 106.09 37.7593C107.506 37.7593 108.146 36.1322 108.146 31.0411Z" fill="white"/>
<path d="M138.903 41.7176H138.833C138.903 44.6175 139.116 47.7272 139.188 48.5058H124.73V0H139.188V12.2314C139.188 14.2105 138.975 17.1804 138.833 19.0196H138.975C140.181 15.1313 143.015 13.0799 147.267 13.0799C154.141 13.0799 157.826 18.5953 157.826 30.2625C157.826 43.3424 153.716 49 147.195 49C142.305 49 139.966 45.9602 138.903 41.7176ZM143.438 30.8989C143.438 26.232 142.8 24.3228 141.524 24.3228C139.966 24.3228 139.186 25.8777 139.186 29.6961V33.3023C139.256 36.2022 140.106 37.7571 141.454 37.7571C142.73 37.7571 143.438 35.9901 143.438 30.8989Z" fill="white"/>
<path d="M175.186 49C162.642 49 159.525 41.2933 159.525 31.3931C159.525 18.241 165.265 13.0799 175.328 13.0799C185.392 13.0799 189.999 17.9589 189.999 29.2718V32.878H173.983C174.053 37.9692 174.621 39.242 176.109 39.242C177.385 39.242 177.952 38.2513 177.952 34.6451H189.999C190.069 43.6945 185.889 48.9977 175.188 48.9977L175.186 49ZM177.95 27.2227V25.6678C177.95 23.1922 177.455 22.1316 176.107 22.1316C174.831 22.1316 174.263 22.9801 174.051 27.2227H177.95Z" fill="white"/>
</svg>
